<?xml version="1.0" encoding="iso-8859-1"?>
<!-- Generator: Adobe Illustrator 19.0.0, SVG Export Plug-In . SVG Version: 6.00 Build 0)  -->
<svg version="1.1" id="Capa_1" xmlns="http://www.w3.org/2000/svg" xmlns:xlink="http://www.w3.org/1999/xlink" x="0px" y="0px"
	 viewBox="0 0 489.673 489.673" style="enable-background:new 0 0 489.673 489.673;" xml:space="preserve">
<g>
	<g>
		<g>
			<path d="M205,319.237c5,14.6,12.4,28.5,22.5,41.1H66.4H33.9c-18.7,0-33.9-15.2-33.9-33.9v-20.9h27.4h1.4v-215.6
				c0-17,13.8-30.7,30.7-30.7h319.1c17,0,30.7,13.8,30.7,30.7v71c-12.9-8.5-27-14.7-41.9-18.4v-41.4H70.7v204.4h107.2v2.1
				c0,6.4,5.2,11.6,11.7,11.6H205z M481.7,387.437c10.2,9.1,10.7,25,1,34.6l-1.4,1.4c-4.7,4.7-10.8,7-16.9,7c-6.5,0-13.1-2.7-17.8-8
				l-49.1-57.3c-18.9,13.3-41.1,20-63.3,20c-28.2,0-56.3-10.7-77.8-32.2c-43-43-43-112.7,0-155.7c21.5-21.5,49.7-32.2,77.8-32.2
				c28.2,0,56.3,10.7,77.8,32.2c38.4,38.4,42.5,98.1,12.3,141.1L481.7,387.437z M385.5,224.037c-14.2-14.1-32.7-21.2-51.2-21.2
				s-37,7.1-51.1,21.2c-28.2,28.2-28.2,74,0,102.2c14.1,14.1,32.6,21.2,51.1,21.2s37-7.1,51.1-21.2
				C413.7,298.037,413.7,252.237,385.5,224.037z"/>
		</g>
	</g>
</g>
<g>
</g>
<g>
</g>
<g>
</g>
<g>
</g>
<g>
</g>
<g>
</g>
<g>
</g>
<g>
</g>
<g>
</g>
<g>
</g>
<g>
</g>
<g>
</g>
<g>
</g>
<g>
</g>
<g>
</g>
</svg>
